<?xml version="1.0" encoding="UTF-8" standalone="no"?>
<svg
   xmlns:dc="http://purl.org/dc/elements/1.1/"
   xmlns:cc="http://creativecommons.org/ns#"
   xmlns:rdf="http://www.w3.org/1999/02/22-rdf-syntax-ns#"
   xmlns:svg="http://www.w3.org/2000/svg"
   xmlns="http://www.w3.org/2000/svg"
   xmlns:sodipodi="http://sodipodi.sourceforge.net/DTD/sodipodi-0.dtd"
   xmlns:inkscape="http://www.inkscape.org/namespaces/inkscape"
   id="svg360"
   version="1.1"
   viewBox="0 0 210 297"
   height="297mm"
   width="210mm"
   sodipodi:docname="arduinokassi.svg"
   inkscape:version="1.0.2 (e86c8708, 2021-01-15)">
  <defs
     id="defs354">
    <rect
       x="-27.816011"
       y="193.3875"
       width="548.93146"
       height="67.338959"
       id="rect54" />
    <rect
       x="-27.816011"
       y="193.3875"
       width="548.93146"
       height="67.338959"
       id="rect1404" />
    <rect
       x="-27.816011"
       y="193.3875"
       width="95.58873"
       height="26.232754"
       id="rect54-6" />
    <rect
       x="-27.816011"
       y="193.3875"
       width="95.58873"
       height="26.232754"
       id="rect1576" />
    <rect
       x="-27.816011"
       y="193.3875"
       width="548.93146"
       height="67.338959"
       id="rect54-8" />
    <rect
       x="-27.816011"
       y="193.3875"
       width="548.93146"
       height="67.338959"
       id="rect1629" />
    <rect
       x="-27.816011"
       y="193.3875"
       width="548.93146"
       height="67.338959"
       id="rect54-8-1" />
    <rect
       x="-27.816011"
       y="193.3875"
       width="548.93146"
       height="67.338959"
       id="rect1982" />
  </defs>
  <sodipodi:namedview
     id="base"
     pagecolor="#ffffff"
     bordercolor="#666666"
     borderopacity="1.0"
     inkscape:pageopacity="0.0"
     inkscape:pageshadow="2"
     inkscape:zoom="0.5170734"
     inkscape:cx="574.46507"
     inkscape:cy="379.82777"
     inkscape:document-units="mm"
     inkscape:current-layer="layer1"
     inkscape:document-rotation="0"
     showgrid="false"
     showborder="false"
     inkscape:window-width="1252"
     inkscape:window-height="674"
     inkscape:window-x="0"
     inkscape:window-y="25"
     inkscape:window-maximized="0" />
  <metadata
     id="metadata357">
    <rdf:RDF>
      <cc:Work
         rdf:about="">
        <dc:format>image/svg+xml</dc:format>
        <dc:type
           rdf:resource="http://purl.org/dc/dcmitype/StillImage" />
        <dc:title></dc:title>
      </cc:Work>
    </rdf:RDF>
  </metadata>
  <g
     inkscape:label="Layer 1"
     inkscape:groupmode="layer"
     id="layer1">
    <g
       id="panel4793">
      <path
         style="fill:none;stroke:#000000;stroke-width:1"
         d="M 35.2 116.5 L 43.8479 116.5 L 43.8479 113.4 L 52.7807 113.4 L 52.7807 116.5 L 61.3336 116.5 L 61.3336 113.4 L 70.2664 113.4 L 70.2664 116.5 L 78.8193 116.5 L 78.8193 113.4 L 87.7521 113.4 L 87.7521 116.5 L 96.4 116.5"
         id="path412" />
      <path
         style="fill:none;stroke:#000000;stroke-width:1"
         d="M 96.4 116.5 L 96.4 123.895 L 93.3 123.895 L 93.3 134.105 L 96.4 134.105 L 96.4 141.5"
         id="path414" />
      <path
         style="fill:none;stroke:#000000;stroke-width:1"
         d="M 96.4 141.5 L 87.7521 141.5 L 87.7521 141.5 L 78.8193 141.5 L 78.8193 141.5 L 70.2664 141.5 L 70.2664 141.5 L 61.3336 141.5 L 61.3336 141.5 L 52.7807 141.5 L 52.7807 141.5 L 43.8479 141.5 L 43.8479 141.5 L 35.2 141.5"
         id="path416" />
      <path
         style="fill:none;stroke:#000000;stroke-width:1"
         d="M 35.2 141.5 L 35.2 134.105 L 38.3 134.105 L 38.3 123.895 L 35.2 123.895 L 35.2 116.5"
         id="path418" />
    </g>
    <g
       id="panel7090">
      <path
         style="fill:none;stroke:#000000;stroke-width:1"
         d="M 5.1 38.3 L 12.305 38.3 L 12.305 35.2 L 22.895 35.2 L 22.895 38.3 L 30.1 38.3"
         id="path421" />
      <path
         style="fill:none;stroke:#000000;stroke-width:1"
         d="M 30.1 38.3 L 30.1 43.5717 L 33.2 43.5717 L 33.2 52.2283 L 30.1 52.2283 L 30.1 60.505 L 33.2 60.505 L 33.2 69.1617 L 30.1 69.1617 L 30.1 77.4383 L 33.2 77.4383 L 33.2 86.095 L 30.1 86.095 L 30.1 94.3717 L 33.2 94.3717 L 33.2 103.028 L 30.1 103.028 L 30.1 108.3"
         id="path423" />
      <path
         style="fill:none;stroke:#000000;stroke-width:1"
         d="M 30.1 108.3 L 22.895 108.3 L 22.895 111.4 L 12.305 111.4 L 12.305 108.3 L 5.1 108.3"
         id="path425" />
      <path
         style="fill:none;stroke:#000000;stroke-width:1"
         d="M 5.1 108.3 L 5.1 103.028 L 5.1 103.028 L 5.1 94.3717 L 5.1 94.3717 L 5.1 86.095 L 5.1 86.095 L 5.1 77.4383 L 5.1 77.4383 L 5.1 69.1617 L 5.1 69.1617 L 5.1 60.505 L 5.1 60.505 L 5.1 52.2283 L 5.1 52.2283 L 5.1 43.5717 L 5.1 43.5717 L 5.1 38.3"
         id="path427" />
    </g>
    <g
       id="panel4640">
      <path
         style="fill:none;stroke:#000000;stroke-width:1"
         d="M 35.2 35.2 L 44.0379 35.2 L 44.0379 38.3 L 52.5907 38.3 L 52.5907 35.2 L 61.5236 35.2 L 61.5236 38.3 L 70.0764 38.3 L 70.0764 35.2 L 79.0093 35.2 L 79.0093 38.3 L 87.5621 38.3 L 87.5621 35.2 L 96.4 35.2"
         id="path430" />
      <path
         style="fill:none;stroke:#000000;stroke-width:1"
         d="M 96.4 35.2 L 96.4 43.7617 L 93.3 43.7617 L 93.3 52.0383 L 96.4 52.0383 L 96.4 60.695 L 93.3 60.695 L 93.3 68.9717 L 96.4 68.9717 L 96.4 77.6283 L 93.3 77.6283 L 93.3 85.905 L 96.4 85.905 L 96.4 94.5617 L 93.3 94.5617 L 93.3 102.838 L 96.4 102.838 L 96.4 111.4"
         id="path432" />
      <path
         style="fill:none;stroke:#000000;stroke-width:1"
         d="M 96.4 111.4 L 87.5621 111.4 L 87.5621 108.3 L 79.0093 108.3 L 79.0093 111.4 L 70.0764 111.4 L 70.0764 108.3 L 61.5236 108.3 L 61.5236 111.4 L 52.5907 111.4 L 52.5907 108.3 L 44.0379 108.3 L 44.0379 111.4 L 35.2 111.4"
         id="path434" />
      <path
         style="fill:none;stroke:#000000;stroke-width:1"
         d="M 35.2 111.4 L 35.2 102.838 L 38.3 102.838 L 38.3 94.5617 L 35.2 94.5617 L 35.2 85.905 L 38.3 85.905 L 38.3 77.6283 L 35.2 77.6283 L 35.2 68.9717 L 38.3 68.9717 L 38.3 60.695 L 35.2 60.695 L 35.2 52.0383 L 38.3 52.0383 L 38.3 43.7617 L 35.2 43.7617 L 35.2 35.2"
         id="path436" />
    </g>
    <g
       id="panel9380">
      <path
         style="fill:none;stroke:#000000;stroke-width:1"
         d="M 101.5 38.3 L 108.705 38.3 L 108.705 35.2 L 119.295 35.2 L 119.295 38.3 L 126.5 38.3"
         id="path439" />
      <path
         style="fill:none;stroke:#000000;stroke-width:1"
         d="M 126.5 38.3 L 126.5 43.5717 L 126.5 43.5717 L 126.5 52.2283 L 126.5 52.2283 L 126.5 60.505 L 126.5 60.505 L 126.5 69.1617 L 126.5 69.1617 L 126.5 77.4383 L 126.5 77.4383 L 126.5 86.095 L 126.5 86.095 L 126.5 94.3717 L 126.5 94.3717 L 126.5 103.028 L 126.5 103.028 L 126.5 108.3"
         id="path441" />
      <path
         style="fill:none;stroke:#000000;stroke-width:1"
         d="M 126.5 108.3 L 119.295 108.3 L 119.295 111.4 L 108.705 111.4 L 108.705 108.3 L 101.5 108.3"
         id="path443" />
      <path
         style="fill:none;stroke:#000000;stroke-width:1"
         d="M 101.5 108.3 L 101.5 103.028 L 98.4 103.028 L 98.4 94.3717 L 101.5 94.3717 L 101.5 86.095 L 98.4 86.095 L 98.4 77.4383 L 101.5 77.4383 L 101.5 69.1617 L 98.4 69.1617 L 98.4 60.505 L 101.5 60.505 L 101.5 52.2283 L 98.4 52.2283 L 98.4 43.5717 L 101.5 43.5717 L 101.5 38.3"
         id="path445" />
    </g>
    <g
       id="panel6070">
      <path
         style="fill:none;stroke:#000000;stroke-width:1"
         d="M 35.2 5.1 L 43.8479 5.1 L 43.8479 5.1 L 52.7807 5.1 L 52.7807 5.1 L 61.3336 5.1 L 61.3336 5.1 L 70.2664 5.1 L 70.2664 5.1 L 78.8193 5.1 L 78.8193 5.1 L 87.7521 5.1 L 87.7521 5.1 L 96.4 5.1"
         id="path448" />
      <path
         style="fill:none;stroke:#000000;stroke-width:1"
         d="M 96.4 5.1 L 96.4 12.495 L 93.3 12.495 L 93.3 22.705 L 96.4 22.705 L 96.4 30.1"
         id="path450" />
      <path
         style="fill:none;stroke:#000000;stroke-width:1"
         d="M 96.4 30.1 L 87.7521 30.1 L 87.7521 33.2 L 78.8193 33.2 L 78.8193 30.1 L 70.2664 30.1 L 70.2664 33.2 L 61.3336 33.2 L 61.3336 30.1 L 52.7807 30.1 L 52.7807 33.2 L 43.8479 33.2 L 43.8479 30.1 L 35.2 30.1"
         id="path452" />
      <path
         style="fill:none;stroke:#000000;stroke-width:1"
         d="M 35.2 30.1 L 35.2 22.705 L 38.3 22.705 L 38.3 12.495 L 35.2 12.495 L 35.2 5.1"
         id="path454" />
    </g>
    <rect
       style="fill:none;stroke:#000000;stroke-width:0.989609"
       id="rect484"
       width="61.210392"
       height="76.210388"
       x="149.0298"
       y="35.400906" />
    <rect
       style="fill:none;fill-opacity:1;stroke:#000000;stroke-width:0.880154"
       id="rect486"
       width="8.019846"
       height="10.019846"
       x="42.440079"
       y="16.540077" />
    <rect
       style="fill:none;fill-opacity:1;stroke:#000000;stroke-width:0.762811"
       id="rect488"
       width="11.237189"
       height="10.137189"
       x="72.381409"
       y="16.481405" />
    <path
       id="path37"
       style="fill:#0000ff;fill-rule:evenodd;stroke-width:0.0438357"
       d="m 182.35403,58.802601 c 6.87411,0 -15.85089,6.762877 -15.85089,14.826098 0,8.06322 22.725,14.373394 15.85089,14.373394 -3.43705,0 -6.54871,-1.634131 -8.80112,-4.276165 -2.2524,-2.642035 -3.64555,-6.29197 -3.64555,-10.32358 0,-4.031611 1.39315,-7.681545 3.64555,-10.32358 2.25241,-2.64204 5.36407,-4.276167 8.80112,-4.276167 z"
       sodipodi:nodetypes="sssssss" />
    <text
       xml:space="preserve"
       id="text52"
       style="font-style:normal;font-variant:normal;font-weight:normal;font-stretch:normal;font-size:50.79999999999999716px;line-height:1.25;font-family:AppleMyungjo;-inkscape-font-specification:'AppleMyungjo, Normal';font-variant-ligatures:normal;font-variant-caps:normal;font-variant-numeric:normal;font-variant-east-asian:normal;white-space:pre;shape-inside:url(#rect54);fill:#0000ff;fill-opacity:1;stroke:none;"
       transform="matrix(0,-0.17088743,0.16062821,0,155.44482,86.967547)"><tspan
         x="-27.816406"
         y="236.92883"><tspan
           style="font-style:normal;font-variant:normal;font-weight:normal;font-stretch:normal;font-size:50.8px;font-family:AppleMyungjo;-inkscape-font-specification:'AppleMyungjo, Normal';font-variant-ligatures:normal;font-variant-caps:normal;font-variant-numeric:normal;font-variant-east-asian:normal;fill:#0000ff;fill-opacity:1">ABTECH</tspan></tspan></text>
    <path
       id="path991"
       style="fill:#0000ff;stroke:none;stroke-width:0.230223;stroke-miterlimit:4;stroke-dasharray:none;stroke-opacity:1"
       d="m 169.79431,60.669477 c 0.45595,0 0.86874,0.232688 1.16752,0.608896 0.2988,0.376205 0.48362,0.89593 0.48362,1.470003 0,0.574072 -0.18482,1.093793 -0.48362,1.470002 -0.29878,0.376204 -0.71157,0.608897 -1.16752,0.608897 -0.45594,0 -0.86872,-0.232693 -1.16752,-0.608897 -0.29878,-0.376209 -0.90192,-1.761139 -0.48359,-1.470002 1.23177,0.85728 3.30225,0 0.48359,-1.470003 -0.50029,-0.260913 0.71158,-0.608896 1.16752,-0.608896 z"
       sodipodi:nodetypes="sssssssss" />
    <rect
       style="fill:#0000ff;stroke:none;stroke-width:0.337573;stroke-miterlimit:4;stroke-dasharray:none;stroke-opacity:1;fill-opacity:1"
       id="rect1100"
       width="35.907173"
       height="0.53021878"
       x="-91.634537"
       y="193.86765"
       transform="rotate(-90)" />
    <ellipse
       style="fill:#0000ff;stroke:none;stroke-width:0.331357;stroke-miterlimit:4;stroke-dasharray:none;stroke-opacity:1;fill-opacity:1"
       id="path1126"
       cx="-54.537743"
       cy="186.35614"
       transform="rotate(-90)"
       rx="0.8123095"
       ry="0.76354253" />
    <path
       id="path37-7"
       style="fill:#0000ff;fill-rule:evenodd;stroke-width:0.0388002"
       d="m 22.895003,77.470601 c 6.112634,0 -14.0950183,5.95843 -14.0950183,13.06252 0,7.1041 20.2076523,12.663669 14.0950183,12.663669 -3.056313,0 -5.823281,-1.43975 -7.826182,-3.767509 -2.002891,-2.32777 -3.241716,-5.54353 -3.241716,-9.09558 0,-3.55205 1.238825,-6.76783 3.241716,-9.09558 2.002901,-2.32777 4.769869,-3.76752 7.826182,-3.76752 z"
       sodipodi:nodetypes="sssssss" />
    <text
       xml:space="preserve"
       id="text52-8"
       style="font-style:normal;font-variant:normal;font-weight:normal;font-stretch:normal;font-size:50.79999999999999716px;line-height:1.25;font-family:AppleMyungjo;-inkscape-font-specification:'AppleMyungjo, Normal';font-variant-ligatures:normal;font-variant-caps:normal;font-variant-numeric:normal;font-variant-east-asian:normal;white-space:pre;shape-inside:url(#rect54-8);fill:#0000ff;fill-opacity:1;stroke:none;"
       transform="matrix(0,-0.15056026,0.14283472,0,-11.271563,71.522221)"><tspan
         x="-27.816406"
         y="236.92883"><tspan
           style="font-style:normal;font-variant:normal;font-weight:normal;font-stretch:normal;font-size:50.8px;font-family:AppleMyungjo;-inkscape-font-specification:'AppleMyungjo, Normal';font-variant-ligatures:normal;font-variant-caps:normal;font-variant-numeric:normal;font-variant-east-asian:normal;fill:#0000ff;fill-opacity:1">ABTECH</tspan></tspan></text>
    <path
       id="path991-3"
       style="fill:#0000ff;stroke:none;stroke-width:0.203777;stroke-miterlimit:4;stroke-dasharray:none;stroke-opacity:1"
       d="m 11.726578,79.115411 c 0.405442,0 0.772506,0.205 1.038189,0.53646 0.2657,0.33146 0.430047,0.78936 0.430047,1.29516 0,0.50578 -0.164347,0.96368 -0.430047,1.29514 -0.265683,0.33145 -0.632747,0.53646 -1.038189,0.53646 -0.405433,0 -0.772488,-0.20501 -1.038189,-0.53646 -0.265682,-0.33146 -0.8020103,-1.55165 -0.43002,-1.29514 1.095321,0.7553 2.936445,0 0.43002,-1.29516 -0.44487,-0.22987 0.632756,-0.53646 1.038189,-0.53646 z"
       sodipodi:nodetypes="sssssssss" />
    <rect
       style="fill:#0000ff;stroke:none;stroke-width:0.299;stroke-miterlimit:4;stroke-dasharray:none;stroke-opacity:1;fill-opacity:1"
       id="rect1100-0"
       width="31.635992"
       height="0.47148412"
       x="-75.634071"
       y="22.895"
       transform="rotate(-90)" />
    <ellipse
       style="fill:#0000ff;stroke:none;stroke-width:0.293293;stroke-miterlimit:4;stroke-dasharray:none;stroke-opacity:1;fill-opacity:0.81960785"
       id="path1126-3"
       cx="-42.94997"
       cy="16.21558"
       transform="rotate(-90)"
       rx="0.71568477"
       ry="0.67896158" />
    <rect
       style="fill:none;fill-opacity:1;stroke:#000000;stroke-width:0.834872"
       id="rect1673"
       width="3.165128"
       height="49.165131"
       x="203.41743"
       y="58.417435" />
    <rect
       style="fill:none;fill-opacity:1;stroke:#000000;stroke-width:0.796421"
       id="rect1673-9"
       width="3.2035794"
       height="44.203579"
       x="153.39821"
       y="63.398209" />
    <circle
       style="fill:none;fill-opacity:1;stroke:#000000;stroke-width:0.7;stroke-miterlimit:4;stroke-dasharray:none"
       id="path1969"
       cx="203.80525"
       cy="43.139999"
       r="2.9552565" />
    <rect
       style="fill:none;fill-opacity:1;stroke:#000000;stroke-width:0.680011;stroke-miterlimit:4;stroke-dasharray:none"
       id="rect1971"
       width="55.119987"
       height="88.219986"
       x="230.88379"
       y="34.849632" />
    <path
       id="path37-7-6"
       style="fill:#0000ff;fill-rule:evenodd;stroke-width:0.0442586"
       d="m 249.9604,86.201778 c 6.61833,0 -15.26108,7.160441 -15.26108,15.697662 0,8.53723 21.87941,15.21835 15.26108,15.21835 -3.30915,0 -6.30503,-1.7302 -8.47363,-4.52754 -2.16858,-2.79736 -3.5099,-6.66185 -3.5099,-10.93046 0,-4.268621 1.34132,-8.133125 3.5099,-10.930457 2.1686,-2.79736 5.16448,-4.527555 8.47363,-4.527555 z"
       sodipodi:nodetypes="sssssss" />
    <text
       xml:space="preserve"
       id="text52-8-9"
       style="font-style:normal;font-variant:normal;font-weight:normal;font-stretch:normal;font-size:50.79999999999999716px;line-height:1.25;font-family:AppleMyungjo;-inkscape-font-specification:'AppleMyungjo, Normal';font-variant-ligatures:normal;font-variant-caps:normal;font-variant-numeric:normal;font-variant-east-asian:normal;white-space:pre;shape-inside:url(#rect54-8-1);fill:#0000ff;fill-opacity:1;stroke:none;"
       transform="matrix(0,-0.18093329,0.15465124,0,212.96729,79.053411)"><tspan
         x="-27.816406"
         y="236.92883"><tspan
           style="font-style:normal;font-variant:normal;font-weight:normal;font-stretch:normal;font-size:50.8px;font-family:AppleMyungjo;-inkscape-font-specification:'AppleMyungjo, Normal';font-variant-ligatures:normal;font-variant-caps:normal;font-variant-numeric:normal;font-variant-east-asian:normal;fill:#0000ff;fill-opacity:1">ABTECH</tspan></tspan></text>
    <path
       id="path991-3-6"
       style="fill:#0000ff;stroke:none;stroke-width:0.232444;stroke-miterlimit:4;stroke-dasharray:none;stroke-opacity:1"
       d="m 237.86803,88.178401 c 0.43898,0 0.83641,0.246355 1.12408,0.644682 0.28768,0.398327 0.46562,0.9486 0.46562,1.556437 0,0.607813 -0.17794,1.158087 -0.46562,1.556414 -0.28767,0.398314 -0.6851,0.644682 -1.12408,0.644682 -0.43898,0 -0.83639,-0.246368 -1.12408,-0.644682 -0.28765,-0.398327 -0.86835,-1.864671 -0.46559,-1.556414 1.18593,0.90767 3.17937,0 0.46559,-1.556437 -0.48167,-0.276243 0.6851,-0.644682 1.12408,-0.644682 z"
       sodipodi:nodetypes="sssssssss" />
    <rect
       style="fill:#0000ff;fill-opacity:1;stroke:none;stroke-width:0.341063;stroke-miterlimit:4;stroke-dasharray:none;stroke-opacity:1"
       id="rect1100-0-5"
       width="38.018028"
       height="0.51048934"
       x="-83.994766"
       y="249.96039"
       transform="rotate(-90)" />
    <ellipse
       style="fill:#0000ff;fill-opacity:0.819608;stroke:none;stroke-width:0.334553;stroke-miterlimit:4;stroke-dasharray:none;stroke-opacity:1"
       id="path1126-3-4"
       cx="-44.717178"
       cy="242.72839"
       transform="rotate(-90)"
       rx="0.86006224"
       ry="0.73513114" />
    <text
       xml:space="preserve"
       style="font-style:normal;font-variant:normal;font-weight:normal;font-stretch:normal;font-size:7.95996px;line-height:1.45;font-family:AppleMyungjo;-inkscape-font-specification:'AppleMyungjo, Normal';font-variant-ligatures:normal;font-variant-caps:normal;font-variant-numeric:normal;font-variant-east-asian:normal;white-space:pre;inline-size:114.01;fill:#0000ff;stroke-width:0.0932805"
       x="-130.11702"
       y="223.70624"
       id="text2028"
       transform="matrix(0,-0.66024361,0.66483891,0,112.01859,30.539932)"><tspan
         x="-130.11702"
         y="223.70624"><tspan
           style="font-style:normal;font-variant:normal;font-weight:normal;font-stretch:normal;font-size:7.95996px;font-family:AppleMyungjo;-inkscape-font-specification:'AppleMyungjo, Normal';font-variant-ligatures:normal;font-variant-caps:normal;font-variant-numeric:normal;font-variant-east-asian:normal;fill:#0000ff;stroke-width:0.0932805">Anton Benediktsson        </tspan></tspan><tspan
         x="-130.11702"
         y="235.6876"><tspan
           style="font-style:normal;font-variant:normal;font-weight:normal;font-stretch:normal;font-size:7.95996px;font-family:AppleMyungjo;-inkscape-font-specification:'AppleMyungjo, Normal';font-variant-ligatures:normal;font-variant-caps:normal;font-variant-numeric:normal;font-variant-east-asian:normal;fill:#0000ff;stroke-width:0.0932805">S</tspan><tspan
           style="font-style:normal;font-variant:normal;font-weight:normal;font-stretch:normal;font-size:7.95996px;font-family:AppleMyungjo;-inkscape-font-specification:'AppleMyungjo, Normal';font-variant-ligatures:normal;font-variant-caps:normal;font-variant-numeric:normal;font-variant-east-asian:normal;fill:#0000ff;stroke-width:0.0932805">í</tspan><tspan
           style="font-style:normal;font-variant:normal;font-weight:normal;font-stretch:normal;font-size:7.95996px;font-family:AppleMyungjo;-inkscape-font-specification:'AppleMyungjo, Normal';font-variant-ligatures:normal;font-variant-caps:normal;font-variant-numeric:normal;font-variant-east-asian:normal;fill:#0000ff;stroke-width:0.0932805">mi: 6661819
</tspan></tspan><tspan
         x="-130.11702"
         y="247.22954"><tspan
           style="font-style:normal;font-variant:normal;font-weight:normal;font-stretch:normal;font-size:7.95996px;font-family:AppleMyungjo;-inkscape-font-specification:'AppleMyungjo, Normal';font-variant-ligatures:normal;font-variant-caps:normal;font-variant-numeric:normal;font-variant-east-asian:normal;fill:#0000ff;stroke-width:0.0932805">Email: antonben44@gmail.com</tspan></tspan></text>
    <rect
       style="fill:none;fill-opacity:1;stroke:#0000ff;stroke-width:0.577912;stroke-miterlimit:4;stroke-dasharray:none;stroke-opacity:1"
       id="rect2034"
       width="27.324911"
       height="78.042572"
       x="252.80589"
       y="40.076664" />
  </g>
</svg>
