<?xml version="1.0" encoding="UTF-8" standalone="no"?>
<svg
   xmlns:dc="http://purl.org/dc/elements/1.1/"
   xmlns:cc="http://creativecommons.org/ns#"
   xmlns:rdf="http://www.w3.org/1999/02/22-rdf-syntax-ns#"
   xmlns:svg="http://www.w3.org/2000/svg"
   xmlns="http://www.w3.org/2000/svg"
   xmlns:sodipodi="http://sodipodi.sourceforge.net/DTD/sodipodi-0.dtd"
   xmlns:inkscape="http://www.inkscape.org/namespaces/inkscape"
   id="svg8"
   version="1.1"
   viewBox="0 0 210 297"
   height="297mm"
   width="210mm"
   sodipodi:docname="simonsegir.svg"
   inkscape:version="1.0.2 (e86c8708, 2021-01-15)">
  <defs
     id="defs2" />
  <sodipodi:namedview
     id="base"
     pagecolor="#ffffff"
     bordercolor="#666666"
     borderopacity="1.0"
     inkscape:pageopacity="0.0"
     inkscape:pageshadow="2"
     inkscape:zoom="0.60046287"
     inkscape:cx="930.46079"
     inkscape:cy="339.80976"
     inkscape:document-units="mm"
     inkscape:current-layer="layer1"
     inkscape:document-rotation="0"
     showgrid="false"
     showborder="false"
     inkscape:window-width="1280"
     inkscape:window-height="800"
     inkscape:window-x="0"
     inkscape:window-y="0"
     inkscape:window-maximized="0" />
  <metadata
     id="metadata5">
    <rdf:RDF>
      <cc:Work
         rdf:about="">
        <dc:format>image/svg+xml</dc:format>
        <dc:type
           rdf:resource="http://purl.org/dc/dcmitype/StillImage" />
        <dc:title></dc:title>
      </cc:Work>
    </rdf:RDF>
  </metadata>
  <g
     inkscape:label="Layer 1"
     inkscape:groupmode="layer"
     id="layer1">
    <g
       id="panel7396">
      <path
         style="fill:none;stroke:#000000;stroke-width:1"
         d="M 55.2 131.5 L 70.6686 131.5 L 70.6686 128.4 L 86.4223 128.4 L 86.4223 131.5 L 101.796 131.5 L 101.796 128.4 L 117.55 128.4 L 117.55 131.5 L 132.923 131.5 L 132.923 128.4 L 148.677 128.4 L 148.677 131.5 L 164.05 131.5 L 164.05 128.4 L 179.804 128.4 L 179.804 131.5 L 195.178 131.5 L 195.178 128.4 L 210.931 128.4 L 210.931 131.5 L 226.4 131.5"
         id="path1089" />
      <path
         style="fill:none;stroke:#000000;stroke-width:1"
         d="M 226.4 131.5 L 226.4 145.562 L 223.3 145.562 L 223.3 162.438 L 226.4 162.438 L 226.4 176.5"
         id="path1091" />
      <path
         style="fill:none;stroke:#000000;stroke-width:1"
         d="M 226.4 176.5 L 210.931 176.5 L 210.931 179.6 L 195.178 179.6 L 195.178 176.5 L 179.804 176.5 L 179.804 179.6 L 164.05 179.6 L 164.05 176.5 L 148.677 176.5 L 148.677 179.6 L 132.923 179.6 L 132.923 176.5 L 117.55 176.5 L 117.55 179.6 L 101.796 179.6 L 101.796 176.5 L 86.4223 176.5 L 86.4223 179.6 L 70.6686 179.6 L 70.6686 176.5 L 55.2 176.5"
         id="path1093" />
      <path
         style="fill:none;stroke:#000000;stroke-width:1"
         d="M 55.2 176.5 L 55.2 162.438 L 58.3 162.438 L 58.3 145.562 L 55.2 145.562 L 55.2 131.5"
         id="path1095" />
    </g>
    <g
       id="panel3608">
      <path
         style="fill:none;stroke:#000000;stroke-width:1"
         d="M 5.1 58.3 L 18.9717 58.3 L 18.9717 55.2 L 36.2283 55.2 L 36.2283 58.3 L 50.1 58.3"
         id="path1098" />
      <path
         style="fill:none;stroke:#000000;stroke-width:1"
         d="M 50.1 58.3 L 50.1 78.8383 L 53.2 78.8383 L 53.2 102.762 L 50.1 102.762 L 50.1 123.3"
         id="path1100" />
      <path
         style="fill:none;stroke:#000000;stroke-width:1"
         d="M 50.1 123.3 L 36.2283 123.3 L 36.2283 126.4 L 18.9717 126.4 L 18.9717 123.3 L 5.1 123.3"
         id="path1102" />
      <path
         style="fill:none;stroke:#000000;stroke-width:1"
         d="M 5.1 123.3 L 5.1 102.762 L 2 102.762 L 2 78.8383 L 5.1 78.8383 L 5.1 58.3"
         id="path1104" />
    </g>
    <g
       id="panel742">
      <path
         style="fill:none;stroke:#000000;stroke-width:1"
         d="M 55.2 55.2 L 70.8586 55.2 L 70.8586 58.3 L 86.2323 58.3 L 86.2323 55.2 L 101.986 55.2 L 101.986 58.3 L 117.36 58.3 L 117.36 55.2 L 133.113 55.2 L 133.113 58.3 L 148.487 58.3 L 148.487 55.2 L 164.24 55.2 L 164.24 58.3 L 179.614 58.3 L 179.614 55.2 L 195.368 55.2 L 195.368 58.3 L 210.741 58.3 L 210.741 55.2 L 226.4 55.2"
         id="path1107" />
      <path
         style="fill:none;stroke:#000000;stroke-width:1"
         d="M 226.4 55.2 L 226.4 79.0283 L 223.3 79.0283 L 223.3 102.572 L 226.4 102.572 L 226.4 126.4"
         id="path1109" />
      <path
         style="fill:none;stroke:#000000;stroke-width:1"
         d="M 226.4 126.4 L 210.741 126.4 L 210.741 123.3 L 195.368 123.3 L 195.368 126.4 L 179.614 126.4 L 179.614 123.3 L 164.24 123.3 L 164.24 126.4 L 148.487 126.4 L 148.487 123.3 L 133.113 123.3 L 133.113 126.4 L 117.36 126.4 L 117.36 123.3 L 101.986 123.3 L 101.986 126.4 L 86.2323 126.4 L 86.2323 123.3 L 70.8586 123.3 L 70.8586 126.4 L 55.2 126.4"
         id="path1111" />
      <path
         style="fill:none;stroke:#000000;stroke-width:1"
         d="M 55.2 126.4 L 55.2 102.572 L 58.3 102.572 L 58.3 79.0283 L 55.2 79.0283 L 55.2 55.2"
         id="path1113" />
    </g>
    <g
       id="panel8689">
      <path
         style="fill:none;stroke:#000000;stroke-width:1"
         d="M 231.5 58.3 L 245.372 58.3 L 245.372 55.2 L 262.628 55.2 L 262.628 58.3 L 276.5 58.3"
         id="path1116" />
      <path
         style="fill:none;stroke:#000000;stroke-width:1"
         d="M 276.5 58.3 L 276.5 78.8383 L 279.6 78.8383 L 279.6 102.762 L 276.5 102.762 L 276.5 123.3"
         id="path1118" />
      <path
         style="fill:none;stroke:#000000;stroke-width:1"
         d="M 276.5 123.3 L 262.628 123.3 L 262.628 126.4 L 245.372 126.4 L 245.372 123.3 L 231.5 123.3"
         id="path1120" />
      <path
         style="fill:none;stroke:#000000;stroke-width:1"
         d="M 231.5 123.3 L 231.5 102.762 L 228.4 102.762 L 228.4 78.8383 L 231.5 78.8383 L 231.5 58.3"
         id="path1122" />
    </g>
    <g
       id="panel3782">
      <path
         style="fill:none;stroke:#000000;stroke-width:1"
         d="M 281.6 55.2 L 297.259 55.2 L 297.259 58.3 L 312.632 58.3 L 312.632 55.2 L 328.386 55.2 L 328.386 58.3 L 343.76 58.3 L 343.76 55.2 L 359.513 55.2 L 359.513 58.3 L 374.887 58.3 L 374.887 55.2 L 390.64 55.2 L 390.64 58.3 L 406.014 58.3 L 406.014 55.2 L 421.768 55.2 L 421.768 58.3 L 437.141 58.3 L 437.141 55.2 L 452.8 55.2"
         id="path1125" />
      <path
         style="fill:none;stroke:#000000;stroke-width:1"
         d="M 452.8 55.2 L 452.8 79.0283 L 449.7 79.0283 L 449.7 102.572 L 452.8 102.572 L 452.8 126.4"
         id="path1127" />
      <path
         style="fill:none;stroke:#000000;stroke-width:1"
         d="M 452.8 126.4 L 437.141 126.4 L 437.141 123.3 L 421.768 123.3 L 421.768 126.4 L 406.014 126.4 L 406.014 123.3 L 390.64 123.3 L 390.64 126.4 L 374.887 126.4 L 374.887 123.3 L 359.513 123.3 L 359.513 126.4 L 343.76 126.4 L 343.76 123.3 L 328.386 123.3 L 328.386 126.4 L 312.632 126.4 L 312.632 123.3 L 297.259 123.3 L 297.259 126.4 L 281.6 126.4"
         id="path1129" />
      <path
         style="fill:none;stroke:#000000;stroke-width:1"
         d="M 281.6 126.4 L 281.6 102.572 L 284.7 102.572 L 284.7 79.0283 L 281.6 79.0283 L 281.6 55.2"
         id="path1131" />
    </g>
    <g
       id="panel4349">
      <path
         style="fill:none;stroke:#000000;stroke-width:1"
         d="M 55.2 5.1 L 70.6686 5.1 L 70.6686 2 L 86.4223 2 L 86.4223 5.1 L 101.796 5.1 L 101.796 2 L 117.55 2 L 117.55 5.1 L 132.923 5.1 L 132.923 2 L 148.677 2 L 148.677 5.1 L 164.05 5.1 L 164.05 2 L 179.804 2 L 179.804 5.1 L 195.178 5.1 L 195.178 2 L 210.931 2 L 210.931 5.1 L 226.4 5.1"
         id="path1134" />
      <path
         style="fill:none;stroke:#000000;stroke-width:1"
         d="M 226.4 5.1 L 226.4 19.1617 L 223.3 19.1617 L 223.3 36.0383 L 226.4 36.0383 L 226.4 50.1"
         id="path1136" />
      <path
         style="fill:none;stroke:#000000;stroke-width:1"
         d="M 226.4 50.1 L 210.931 50.1 L 210.931 53.2 L 195.178 53.2 L 195.178 50.1 L 179.804 50.1 L 179.804 53.2 L 164.05 53.2 L 164.05 50.1 L 148.677 50.1 L 148.677 53.2 L 132.923 53.2 L 132.923 50.1 L 117.55 50.1 L 117.55 53.2 L 101.796 53.2 L 101.796 50.1 L 86.4223 50.1 L 86.4223 53.2 L 70.6686 53.2 L 70.6686 50.1 L 55.2 50.1"
         id="path1138" />
      <path
         style="fill:none;stroke:#000000;stroke-width:1"
         d="M 55.2 50.1 L 55.2 36.0383 L 58.3 36.0383 L 58.3 19.1617 L 55.2 19.1617 L 55.2 5.1"
         id="path1140" />
    </g>
    <ellipse
       style="fill:none;stroke:#000002;stroke-width:0.453012"
       id="path1215"
       cx="302.5"
       cy="77.5"
       rx="2.2734942"
       ry="2.273494" />
    <ellipse
       style="fill:none;stroke:#000002;stroke-width:0.453012"
       id="path1215-7"
       cx="342.5"
       cy="77.5"
       rx="2.2734942"
       ry="2.273494" />
    <ellipse
       style="fill:none;stroke:#000002;stroke-width:0.634217"
       id="path1215-9"
       cx="303.5"
       cy="103.5"
       rx="3.1828918"
       ry="3.1828916" />
    <ellipse
       style="fill:none;stroke:#000002;stroke-width:1.81205"
       id="path1215-89"
       cx="140"
       cy="146"
       rx="9.0939741"
       ry="9.0939751" />
    <circle
       style="fill:none;stroke:#000002;stroke-width:0.453012"
       id="path1215-7-7"
       cx="382.5"
       cy="77.5"
       r="2.273494" />
    <circle
       style="fill:none;stroke:#000002;stroke-width:0.453012"
       id="path1215-7-3"
       cx="422.5"
       cy="77.5"
       r="2.273494" />
    <ellipse
       style="fill:none;stroke:#000002;stroke-width:0.634217"
       id="path1215-9-6"
       cx="343.5"
       cy="103.5"
       rx="3.1828918"
       ry="3.1828916" />
    <ellipse
       style="fill:none;stroke:#000002;stroke-width:0.634217"
       id="path1215-9-9"
       cx="383.5"
       cy="103.5"
       rx="3.1828918"
       ry="3.1828916" />
    <ellipse
       style="fill:none;stroke:#000002;stroke-width:0.634217"
       id="path1215-9-62"
       cx="423.5"
       cy="103.5"
       rx="3.1828918"
       ry="3.1828916" />
    <ellipse
       style="fill:none;stroke:#000002;stroke-width:1.08723"
       id="path1215-9-7"
       cx="140"
       cy="168"
       rx="5.4563851"
       ry="5.4563856" />
    <text
       xml:space="preserve"
       style="font-size:22.57779999999999987px;line-height:1.25;font-family:sans-serif;white-space:pre;inline-size:225.348;stroke-width:0.82226565;stroke-miterlimit:4;stroke-dasharray:none;fill:#0000ff;"
       x="75.710884"
       y="148.79814"
       id="text1380"
       transform="matrix(0.27424021,0,0,0.37873576,43.162174,114.39405)"><tspan
         x="75.710884"
         y="148.79814"><tspan
           style="fill:#0000ff;stroke-width:0.822266;stroke-miterlimit:4;stroke-dasharray:none">Anton Benediktsson</tspan></tspan></text>
    <text
       xml:space="preserve"
       style="font-size:22.5778px;line-height:1.25;font-family:sans-serif;stroke-width:0.264583"
       x="164.53999"
       y="196.77335"
       id="text1384"><tspan
         sodipodi:role="line"
         id="tspan1382"
         x="164.53999"
         y="196.77335"
         style="stroke-width:0.264583" /></text>
  </g>
</svg>
